<svg xmlns="http://www.w3.org/2000/svg" width="112px" height="80px" version="1.1">
  <title>Open House Porto</title>
  <g fill="none" fill-rule="evenodd" stroke="none" stroke-width="1">
    <path id="lines" fill="#303ab2" d="M110.12 9.4c.63 0 .91.14.91.42v2.35c0 .31-.28.45-.85.45H64.63c-.63 0-.9-.14-.9-.45V9.85c0-.31.27-.46.9-.46h45.5zM33.15 38.44c.44 0 .64.14.64.42v2.35c0 .32-.2.46-.6.46H1.1c-.45 0-.65-.14-.65-.46V38.9c0-.31.2-.45.64-.45h32.07zm77.3 29.05c.4 0 .58.15.58.43v2.35c0 .31-.18.45-.55.45H81.1c-.4 0-.58-.14-.58-.45v-2.32c0-.31.18-.46.58-.46h29.35z"/>
    <path id="logotype" fill="#ffffff" d="M8.71 21.07c-4.48 0-6.35-2.73-6.35-5.84V6.5C2.36 3.4 4.21.44 8.7.44c4.47 0 6.34 2.72 6.34 5.84V15c0 3.12-1.84 6.07-6.32 6.07zm-2.47-5.9V6.4c0-1.3.6-2.72 2.45-2.72 1.89 0 2.47 1.39 2.47 2.66v8.79c0 1.3-.6 2.72-2.45 2.72-1.9 0-2.47-1.4-2.47-2.67zm15.8-1.1v6.09c0 .31-.14.45-.41.45h-3c-.3 0-.44-.14-.44-.45V1.35c0-.29.14-.43.44-.43h5.22c3.82 0 6.54 1.93 6.54 6.32 0 4.53-2.58 6.32-6.48 6.32h-1.4c-.28 0-.47.14-.47.5zm.44-9.92c-.33 0-.44.17-.44.46v5.26c0 .17.08.46.41.46h1.51c1.4-.12 2.5-.77 2.5-3.09 0-2.27-1.4-3.09-2.69-3.09h-1.3zm20.33-2.8V3.7c0 .31-.13.45-.44.45h-4.8c-.28 0-.42.14-.42.43V8.8c0 .28.25.4.39.4h4.12c.27 0 .41.14.41.45V12c0 .28-.14.42-.41.42h-4.1c-.27 0-.4.15-.4.43v4.08c0 .28.13.42.4.42h4.81c.3 0 .44.15.44.43v2.38c0 .31-.13.45-.44.45h-8.62c-.3 0-.44-.14-.44-.45V1.35c0-.29.13-.43.44-.43h8.62c.3 0 .44.14.44.43zm7.28 10.17c-.08-.17-.19-.23-.35-.23-.25 0-.41.14-.41.43v8.44c0 .31-.14.45-.42.45H46.2c-.3 0-.44-.14-.44-.45V1.35c0-.29.14-.43.42-.43h2.77c.17 0 .3.09.39.29l4.31 8.55c.05.14.2.26.38.26.28 0 .42-.15.42-.43V1.35c0-.29.13-.43.4-.43h2.73c.3 0 .44.14.44.43v18.84c0 .28-.17.42-.44.42H55c-.16 0-.3-.08-.38-.28l-4.54-8.81zm-8.25 38.15h-3c-.3 0-.43-.17-.43-.46v-18.8c0-.3.14-.43.44-.43h3c.27 0 .4.14.4.42v7.42c0 .29.14.43.42.43h3.73c.28 0 .42-.14.42-.43V30.4c0-.28.13-.42.4-.42h3c.3 0 .44.14.44.42v18.81c0 .29-.13.46-.44.46h-3c-.27 0-.4-.17-.4-.46v-7.3c0-.29-.14-.43-.42-.43h-3.73c-.28 0-.42.14-.42.42v7.31c0 .29-.13.46-.4.46zm18.33.45c-4.48 0-6.35-2.72-6.35-5.84v-8.72c0-3.12 1.84-6.06 6.32-6.06s6.35 2.72 6.35 5.83v8.73c0 3.11-1.84 6.06-6.32 6.06zm-2.47-5.9c0 1.28.57 2.67 2.47 2.67 1.84 0 2.45-1.42 2.45-2.72V35.4c0-1.28-.58-2.66-2.48-2.66-1.84 0-2.44 1.41-2.44 2.72v8.78zm24.18.46c0 3.46-2.23 5.44-6.1 5.44-3.88 0-6.16-1.98-6.16-5.44V30.4c0-.28.14-.42.42-.42h2.99c.3 0 .44.14.44.42v14.03c0 1.21.6 2.46 2.3 2.46 1.77 0 2.26-1.25 2.26-2.46V30.4c0-.28.14-.42.44-.42h3c.27 0 .4.14.4.42v14.28zm2.83.17c0-.25.16-.37.38-.37h3.08c.3 0 .39.17.41.43.22 1.39 1.32 2 2.48 2 1.23 0 2.28-.42 2.28-2.06 0-.68-.3-1.22-.8-1.56l-4.95-3.45a5.59 5.59 0 0 1-2.63-4.93c0-3.46 2.6-5.41 5.9-5.41 3.93 0 6.08 2.2 6.08 5.3 0 .25-.2.36-.42.36h-2.94c-.27 0-.5-.2-.5-.54 0-.62-.57-1.9-2.19-1.9-1.65 0-2.2 1-2.2 1.96 0 1.1.42 1.42 1.07 1.87l4.84 3.43c1.65 1.16 2.56 2.38 2.56 4.76 0 3.74-2.31 5.38-6.1 5.38-3.69 0-6.35-1.93-6.35-5.27zm24.76-14.45v2.35c0 .32-.14.46-.44.46h-4.81c-.28 0-.41.14-.41.42v4.22c0 .29.24.4.38.4h4.12c.28 0 .41.14.41.45v2.35c0 .29-.13.43-.4.43h-4.1c-.28 0-.41.14-.41.42v4.08c0 .29.13.43.4.43h4.82c.3 0 .44.14.44.42v2.38c0 .32-.14.46-.44.46h-8.63c-.3 0-.44-.14-.44-.46v-18.8c0-.29.14-.43.44-.43h8.63c.3 0 .44.14.44.42zM6.49 72.18v6.09c0 .31-.14.45-.42.45h-3c-.3 0-.43-.14-.43-.45V59.46c0-.29.14-.43.44-.43H8.3c3.82 0 6.54 1.93 6.54 6.32 0 4.53-2.58 6.32-6.49 6.32h-1.4c-.27 0-.46.14-.46.5zm.44-9.92c-.33 0-.44.17-.44.46v5.26c0 .17.08.46.4.46h1.52c1.4-.12 2.5-.77 2.5-3.09 0-2.27-1.4-3.09-2.7-3.09H6.94zm17.06 16.92c-4.48 0-6.35-2.72-6.35-5.84V64.6c0-3.11 1.84-6.06 6.32-6.06s6.35 2.72 6.35 5.84v8.72c0 3.12-1.84 6.07-6.32 6.07zm-2.47-5.9c0 1.28.57 2.67 2.47 2.67 1.84 0 2.45-1.42 2.45-2.72v-8.79c0-1.27-.58-2.66-2.48-2.66-1.84 0-2.44 1.42-2.44 2.72v8.78zm24.18 5.44h-3.24c-.14 0-.33-.14-.42-.34l-2.17-6.26c-.08-.25-.27-.45-.6-.45h-1.49c-.43.03-.49.34-.49.5v6.1c0 .28-.14.45-.41.45h-3c-.27 0-.44-.17-.44-.45V59.46c0-.29.17-.43.44-.43h5.2c3.79 0 6.54 1.84 6.54 6.15 0 2.78-.94 4.33-2.01 5.24a.74.74 0 0 0-.16.37c0 .11 0 .23.05.34l2.53 6.91c.03.09.08.17.08.26 0 .28-.14.42-.41.42zM37.73 62.3c-.33 0-.44.17-.44.45v5.22c0 .17.06.45.47.45h1.43c1.4-.11 2.5-.74 2.5-3.06 0-2.27-1.4-3.06-2.7-3.06h-1.26zm18.14 16.43H52.9c-.3 0-.44-.14-.44-.45V62.69c0-.29-.14-.43-.41-.43h-3.71c-.3 0-.44-.14-.44-.45v-2.35c0-.29.13-.43.44-.43h12.09c.27 0 .44.14.44.43v2.35c0 .31-.17.45-.44.45h-3.71c-.28 0-.41.14-.41.43v15.58c0 .31-.17.45-.44.45zm13.73.46c-4.47 0-6.34-2.72-6.34-5.84V64.6c0-3.11 1.84-6.06 6.32-6.06s6.34 2.72 6.34 5.84v8.72c0 3.12-1.84 6.07-6.32 6.07zm-2.47-5.9c0 1.28.58 2.67 2.47 2.67 1.85 0 2.45-1.42 2.45-2.72v-8.79c0-1.27-.58-2.66-2.47-2.66-1.84 0-2.45 1.42-2.45 2.72v8.78z"/>
  </g>
</svg>
