<svg width="24" height="24" viewBox="0 0 24 24" xmlns="http://www.w3.org/2000/svg"><title>picto-tickets-yes</title><g fill="#303ab2" fill-rule="evenodd"><path d="M24,14 L24,19 L5.55111512e-17,19 L5.55111512e-17,14 L1,14 C2.1045695,14 3,13.1045695 3,12 C3,10.8954305 2.1045695,10 1,10 L0,10 L5.55111512e-17,5 L24,5 L24,10 L23,10 C21.8954305,10 21,10.8954305 21,12 C21,13.1045695 21.8954305,14 23,14 L24,14 L24,14 Z M17,17 L22,17 L22,15.8739825 C20.2747728,15.4299397 19,13.8638394 19,12 C19,10.1361606 20.2747728,8.57006028 22,8.12601749 L22,7 L17,7 L17,17 Z M15,17 L15,7 L2,7 L2,8.12601749 C3.72522721,8.57006028 5,10.1361606 5,12 C5,13.8638394 3.72522721,15.4299397 2,15.8739825 L2,17 L15,17 Z"></path></g></svg>
