<?xml version="1.0" encoding="UTF-8"?>
<svg width="661px" height="187px" viewBox="0 0 661 187" version="1.1" xmlns="http://www.w3.org/2000/svg" xmlns:xlink="http://www.w3.org/1999/xlink">
    <title>Group</title>
    <desc>Created with Sketch.</desc>
    <defs></defs>
    <g id="Page-1" stroke="none" stroke-width="1" fill="none" fill-rule="evenodd">
        <g id="Group" fill="#000000">
            <path d="M659.207,154.8181 L642.531,154.8181 C641.568,154.8181 640.79,154.0361 640.79,153.0771 L640.79,57.2231 L614.577,70.5111 C613.421,71.1001 612.05,70.2571 612.05,68.9591 L612.05,51.9091 C612.05,51.2501 612.421,50.6511 613.008,50.3551 L648.155,32.5891 C648.561,32.3841 649.009,32.2771 649.464,32.2771 L659.207,32.2771 C660.164,32.2771 660.945,33.0571 660.945,34.0181 L660.945,153.0771 C660.945,154.0361 660.164,154.8181 659.207,154.8181" id="Fill-2"></path>
            <path d="M106.271,66.1789 L106.271,121.2179 C106.271,126.1889 110.223,130.2209 115.081,130.2209 C119.929,130.2209 123.834,126.1889 123.834,121.2179 L123.834,66.1789 C123.834,61.1689 119.929,57.1769 115.081,57.1769 C110.223,57.1769 106.271,61.1689 106.271,66.1789" id="Fill-4"></path>
            <path d="M44.8809,133.0905 L44.8809,9.1535 C44.8809,4.1695 40.9219,0.1185 36.0729,0.1185 C31.2539,0.1185 27.3139,4.1695 27.3139,9.1535 L27.3139,133.0905 C27.3139,138.0855 31.2539,142.1045 36.0729,142.1045 C40.9219,142.1045 44.8809,138.0855 44.8809,133.0905" id="Fill-6"></path>
            <path d="M0.9448,41.3132 L0.9448,146.0542 C0.9448,151.0442 4.8678,155.0652 9.7608,155.0652 C14.5738,155.0652 18.5338,151.0442 18.5338,146.0542 L18.5338,41.3132 C18.5338,36.3282 14.5738,32.2772 9.7608,32.2772 C4.8678,32.2772 0.9448,36.3282 0.9448,41.3132" id="Fill-8"></path>
            <path d="M71.2559,177.9636 L71.2559,48.7226 C71.2559,43.7366 67.2979,39.6856 62.4459,39.6856 C57.6289,39.6856 53.6869,43.7366 53.6869,48.7226 L53.6869,177.9636 C53.6869,182.9576 57.6289,186.9746 62.4459,186.9746 C67.2979,186.9746 71.2559,182.9576 71.2559,177.9636" id="Fill-10"></path>
            <path d="M97.5898,146.238 L97.5898,30.521 C97.5898,25.536 93.6308,21.485 88.7798,21.485 C83.9628,21.485 80.0208,25.536 80.0208,30.521 L80.0208,146.238 C80.0208,151.232 83.9628,155.253 88.7798,155.253 C93.6308,155.253 97.5898,151.232 97.5898,146.238" id="Fill-12"></path>
            <path d="M176.1729,99.8996 L194.4099,99.8996 L185.2909,75.0966 L176.1729,99.8996 Z M193.1939,56.3666 L221.7699,131.0276 L205.9629,131.0276 L199.2769,113.0336 L171.3069,113.0336 L164.7429,131.0276 L149.1759,131.0276 L177.7539,56.3666 L193.1939,56.3666 Z" id="Fill-14"></path>
            <polygon id="Fill-16" points="293.2661 131.028 280.9881 131.028 245.7241 81.298 245.7241 131.028 230.7691 131.028 230.7691 56.367 245.3591 56.367 278.3091 103.549 278.3091 56.367 293.2661 56.367"></polygon>
            <polygon id="Fill-18" points="303.5986 56.3669 367.3166 56.3669 367.3166 69.9879 343.2376 69.9879 343.2376 131.0279 327.5546 131.0279 327.5546 69.9879 303.5986 69.9879"></polygon>
            <polygon id="Fill-20" points="428.2324 56.3669 428.2324 69.9879 392.8514 69.9879 392.8514 86.2809 424.9504 86.2809 424.9504 99.5349 392.8514 99.5349 392.8514 117.2899 428.2324 117.2899 428.2324 131.0279 377.5294 131.0279 377.5294 56.3669"></polygon>
            <polygon id="Fill-22" points="502.7686 131.028 490.4916 131.028 455.2256 81.298 455.2256 131.028 440.2686 131.028 440.2686 56.367 454.8616 56.367 487.8136 103.549 487.8136 56.367 502.7686 56.367"></polygon>
            <path d="M538.7617,99.8996 L557.0017,99.8996 L547.8797,75.0966 L538.7617,99.8996 Z M555.7827,56.3666 L584.3597,131.0276 L568.5487,131.0276 L561.8637,113.0336 L533.8937,113.0336 L527.3277,131.0276 L511.7647,131.0276 L540.3427,56.3666 L555.7827,56.3666 Z" id="Fill-24"></path>
        </g>
    </g>
</svg>