<svg xmlns="http://www.w3.org/2000/svg" width="228px" height="227px" version="1.1">
  <title>
    Combined Shape
  </title>
  <path fill="#000000" fill-rule="evenodd" stroke="none" stroke-width="1" d="M66.7 125.67a30.42 30.42 0 1 1 0-60.85 30.42 30.42 0 0 1 0 60.85zM178.62.2h48.32v155.92h-37.32V46.44s-43 53.99-68.69 84.63c-19.3 23.03-37.71 28.13-54.23 28.13a63.96 63.96 0 1 1 57.56-91.86L178.62.2zM71.87 217V205.9h6.83v11c0 2.5 1.3 3.56 3.1 3.56 1.82 0 3.1-.98 3.1-3.42v-11.14h6.84v10.94c0 6.87-3.99 9.56-10 9.56-6 0-9.87-2.76-9.87-9.42zM95.15 226v-20.1h6.72v20.1h-6.72zm15.02-14.41h-5.54v-5.69h17.8v5.69h-5.54v14.41h-6.72V211.6zm34.19 4.42v-.06c0-6 4.68-10.48 10.68-10.48 4.42 0 7.4 2.16 9.1 5.23l-5.54 3.24c-.75-1.44-1.81-2.44-3.65-2.44-2.26 0-3.76 1.98-3.76 4.4v.05c0 2.62 1.55 4.45 3.76 4.45 1.9 0 2.96-1.03 3.8-2.52l5.54 3.12c-1.7 3-4.51 5.43-9.5 5.43-5.58 0-10.43-4.2-10.43-10.42zm26.44-4.42h-5.54v-5.69h17.8v5.69h-5.54v14.41h-6.72V211.6zm12.94 4.42v-.06c0-5.83 4.8-10.48 11-10.48s10.94 4.6 10.94 10.42v.06c0 5.83-4.8 10.48-11 10.48s-10.94-4.59-10.94-10.42zm15.17 0v-.06c0-2.38-1.64-4.53-4.22-4.53-2.56 0-4.17 2.12-4.17 4.47v.06c0 2.39 1.64 4.54 4.22 4.54 2.56 0 4.17-2.13 4.17-4.48zm-129.5 6.84l-3.25 4.1-2.96-2a11.46 11.46 0 0 1-5.68 1.48c-6.2 0-10.93-4.59-10.93-10.42v-.06c0-5.83 4.79-10.48 10.99-10.48s10.94 4.6 10.94 10.42v.06c0 1.92-.53 3.7-1.45 5.24l2.34 1.67zm-16.05-6.9c0 2.39 1.63 4.54 4.22 4.54 2.55 0 4.16-2.13 4.16-4.48v-.06c0-2.38-1.63-4.53-4.22-4.53-2.55 0-4.16 2.12-4.16 4.47v.06zm-27.83-10.05h9.82c3.56 0 5.83.9 7.24 2.3a6.31 6.31 0 0 1 1.84 4.76v.25c0 2.9-1.5 4.74-3.88 5.91.1.19 4.6 6.88 4.6 6.88h-7.63l-3.54-5.93h-1.73V226h-6.72v-20.1zm9.62 9.98c1.74 0 2.85-.73 2.85-2.07v-.24c0-1.51-1.09-2.04-2.82-2.04H32.1v4.35h3.05zM33.7 189.2v-.06c0-5.83 4.79-10.48 10.99-10.48s10.94 4.6 10.94 10.42v.06c0 5.83-4.8 10.48-11 10.48s-10.93-4.6-10.93-10.42zm15.15 0v-.06c0-2.38-1.63-4.53-4.22-4.53-2.55 0-4.16 2.12-4.16 4.47v.06c0 2.38 1.64 4.54 4.22 4.54 2.55 0 4.16-2.13 4.16-4.48zm32.4-10.1h7.7c7.98 0 11.97 3.92 11.97 9.87v.06c0 5.94-4.08 10.16-12.2 10.16h-7.47v-20.1zm7.84 14.23c3.08 0 5.05-1.26 5.05-4.16v-.06c0-2.9-1.97-4.16-5.05-4.16h-1.12v8.38h1.12zm72.1-14.24h7.7c7.99 0 11.97 3.94 11.97 9.88v.06c0 5.94-4.08 10.16-12.2 10.16h-7.46v-20.1zm7.84 14.24c3.08 0 5.06-1.26 5.06-4.16v-.06c0-2.9-1.98-4.16-5.06-4.16h-1.12v8.38h1.12zm38.74 2.92l3.52-4.2a11.39 11.39 0 0 0 6.87 2.31c1.4 0 2.07-.42 2.07-.97v-.06c0-.75-.74-1.19-2.9-1.62-4.5-.91-8.54-2.06-8.54-6.3v-.07c0-3.81 3.06-6.7 8.6-6.7 3.87 0 6.74.92 9.07 2.76l-3.24 4.49c-1.93-1.34-4-2-5.87-2-1 0-1.77.34-1.77.97v.06c0 .6.66 1.15 2.78 1.55 5.14.95 8.66 2.63 8.66 6.27v.06c0 4.22-3.55 6.84-8.94 6.84-4.62 0-7.76-1.15-10.31-3.4zm-23.91-7.05v-.06c0-5.83 4.8-10.48 11-10.48s10.93 4.6 10.93 10.42v.06c0 5.82-4.79 10.48-11 10.48-6.2 0-10.93-4.6-10.93-10.42zm15.16 0v-.06c0-2.38-1.64-4.53-4.22-4.53-2.56 0-4.17 2.12-4.17 4.47v.06c0 2.38 1.64 4.54 4.23 4.54 2.55 0 4.16-2.13 4.16-4.48zm-73.57-10.1h6.82l5.06 6.83 5.07-6.84h6.7v20.1h-6.58v-10.9l-5.2 6.62h-.1l-5.2-6.63v10.9h-6.57V179.1zm-66.86 0h9.82c3.56 0 5.83.88 7.23 2.29a6.3 6.3 0 0 1 1.84 4.76v.25c0 2.9-1.48 4.74-3.87 5.91l4.59 6.88h-7.63l-3.53-5.93h-1.73v5.93h-6.72v-20.1zm9.62 9.96c1.74 0 2.85-.72 2.85-2.06v-.25c0-1.5-1.09-2.03-2.83-2.03h-3.07v4.34h3.05zm139.56 34.08l3.52-4.2a11.42 11.42 0 0 0 6.87 2.31c1.4 0 2.07-.43 2.07-.97v-.06c0-.75-.74-1.2-2.9-1.62-4.5-.92-8.54-2.06-8.54-6.3v-.07c0-3.82 3.06-6.7 8.6-6.7 3.87 0 6.74.92 9.07 2.76l-3.24 4.48c-1.93-1.33-4-2-5.87-2-1 0-1.77.34-1.77.98v.06c0 .6.66 1.15 2.78 1.55 5.14.95 8.66 2.62 8.66 6.26v.06c0 4.22-3.55 6.85-8.94 6.85-4.62 0-7.76-1.15-10.31-3.4zM104.49 179.1h17.14v5.52h-10.54v2.26h7.66v4.63h-7.66v2.18h10.68v5.5H104.5V179.1zm20.7 26.81h17.14v5.52h-10.54v2.26h7.66v4.63h-7.66v2.18h10.68V226h-17.28v-20.1zm-117.12-.14h8.4l7.82 20.24h-7.02l-1.32-3.5h-7.5l-1.3 3.5H.26l7.82-20.24zm7.02 12.3l-2.77-7.6c-.02-.07-.18-.1-.21 0-.48 1.37-2.77 7.6-2.77 7.6h5.75z"/>
</svg>
